<?xml version="1.0" encoding="UTF-8"?><svg id="Layer_6" xmlns="http://www.w3.org/2000/svg" viewBox="0 0 633.42 168.46"><path d="m318.25,19.91h-3.09V1.55c0-.85.69-1.55,1.55-1.55h0c.85,0,1.55.69,1.55,1.55v18.37Z" style="fill:#58595b;"/><path d="m218.14,56.33v-2.7l13.3-11.82c2.8-2.49,6.43-3.87,10.18-3.87h28.26l3.3-16.28c.36-1.8,1.94-3.09,3.77-3.09h79.08c1.81,0,3.38,1.26,3.76,3.03l3.51,16.09h27.87c3.99,0,7.81,1.55,10.67,4.33l13.44,12.1v1.96s-197.51-.12-197.14.25Z" style="fill:#f15b2b;"/><path d="m363.74,37.7h-.45l-3.51-16.09c-.39-1.77-1.95-3.03-3.76-3.03h-79.08c-1.83,0-3.41,1.29-3.77,3.09l-3.3,16.28h93.42l.45-.25Z" style="fill:#58595b;"/><rect x="304.33" y="27.36" width="10.3" height="10.84" style="fill:#878486;"/><rect x="284.46" y="27.36" width="10.3" height="10.84" style="fill:#878486;"/><rect x="338.65" y="27.36" width="10.3" height="10.84" style="fill:#878486;"/><rect x="318.79" y="27.36" width="10.3" height="10.84" style="fill:#878486;"/><rect x="254.67" y="43.25" width="18.39" height="7.85" style="fill:#d75127;"/><rect x="276" y="43.25" width="18.39" height="7.85" style="fill:#d75127;"/><rect x="297.21" y="43.25" width="18.39" height="7.85" style="fill:#d75127;"/><rect x="318.55" y="43.25" width="18.39" height="7.85" style="fill:#d75127;"/><rect x="340.13" y="43.25" width="18.39" height="7.85" style="fill:#d75127;"/><rect x="361.46" y="43.25" width="18.39" height="7.85" style="fill:#d75127;"/><rect x="244.13" y="43.25" width="5.39" height="7.85" style="fill:#d75127;"/><rect x="383.89" y="43.25" width="5.39" height="7.85" style="fill:#d75127;"/><rect x="555.37" y="64.74" width="31.79" height="1.9" transform="translate(1142.54 131.38) rotate(180)" style="fill:#58595b;"/><rect x="584.03" y="66.68" width="1.62" height="8.53" transform="translate(1169.68 141.88) rotate(180)" style="fill:#58595b;"/><rect x="575.6" y="66.68" width="1.62" height="8.53" transform="translate(1152.83 141.88) rotate(180)" style="fill:#58595b;"/><rect x="566.93" y="66.4" width="1.62" height="8.53" transform="translate(1135.49 141.34) rotate(180)" style="fill:#58595b;"/><rect x="558.5" y="66.4" width="1.62" height="8.53" transform="translate(1118.63 141.34) rotate(180)" style="fill:#58595b;"/><rect x="604.04" y="96.45" width="2.04" height="21.3" transform="translate(1210.12 214.2) rotate(180)" style="fill:#58595b;"/><rect x="581.26" y="77.3" width="1.58" height="15.81" style="fill:#58595b;"/><rect x="560.99" y="83.87" width="46.74" height="1.83" transform="translate(1168.73 169.56) rotate(180)" style="fill:#58595b;"/><rect x="588.55" y="85.7" width="1.62" height="7.45" transform="translate(1178.71 178.84) rotate(180)" style="fill:#58595b;"/><rect x="596.77" y="85.21" width="1.49" height="8.16" transform="translate(1195.02 178.57) rotate(180)" style="fill:#58595b;"/><rect x="604.48" y="85.7" width="1.62" height="7.45" transform="translate(1210.59 178.84) rotate(180)" style="fill:#58595b;"/><rect x="581.22" y="85.7" width="1.62" height="7.45" transform="translate(1164.06 178.84) rotate(180)" style="fill:#58595b;"/><rect x="574.81" y="85.46" width="1.62" height="7.45" transform="translate(1151.24 178.37) rotate(180)" style="fill:#58595b;"/><rect x="566.38" y="85.46" width="1.62" height="7.45" transform="translate(1134.39 178.37) rotate(180)" style="fill:#58595b;"/><path d="m615.91,122.77v-.42c0-3.31-2.62-5.99-5.85-5.99h-42.96c-3.74,0-6.77-3.03-6.77-6.77v-5.9c0-3.74,3.03-6.77,6.77-6.77h43.64c.67,0,.99-.83.49-1.28l-3.95-3.57c-.13-.12-.3-.18-.47-.18h-40.45c-2.43,0-4.4-1.97-4.4-4.4v-5.94c0-2.43,1.97-4.4,4.4-4.4h23.38c.34,0,.5-.43.24-.65l-3.4-2.95c-.08-.03-.15-.06-.23-.09h-25.89c-2.42,0-4.38-1.96-4.38-4.38v-10.7h-239.37v69.75h314.26c2.45-1.47,2.45-5.39,2.45-5.39h-17.51Z" style="fill:#f15b2b;"/><path d="m17.51,122.77v-.42c0-3.31,2.62-5.99,5.85-5.99h42.96c3.74,0,6.77-3.03,6.77-6.77v-5.9c0-3.74-3.03-6.77-6.77-6.77H22.68c-.67,0-.99-.83-.49-1.28l3.95-3.57c.13-.12.3-.18.47-.18h40.45c2.43,0,4.4-1.97,4.4-4.4v-5.94c0-2.43-1.97-4.4-4.4-4.4h-23.38c-.34,0-.5-.43-.24-.65l3.4-2.95c.08-.03.15-.06.23-.09h25.89c2.42,0,4.38-1.96,4.38-4.38v-10.7h239.37v69.75H2.45C0,126.69,0,122.77,0,122.77h17.51Z" style="fill:#f15b2b;"/><rect x="589.88" y="154.89" width="8.83" height="2.7" style="fill:#404041;"/><ellipse cx="600.55" cy="156.11" rx="2.08" ry="2.45" style="fill:#404041;"/><path d="m596.99,154.89s-3.68-9.56.98-10.79c4.66-1.23.74,10.79.74,10.79h-1.72Z" style="fill:#404041;"/><path d="m598.95,157.58s3.68,9.56-.98,10.79c-4.66,1.23-.74-10.79-.74-10.79h1.72Z" style="fill:#404041;"/><path d="m407.04,52.14h157.93c2.56,0,4.63,2.07,4.63,4.63h-162.56v-4.63h0Z" style="fill:#f15b2b;"/><rect x="503.41" y="47.88" width="10.46" height="6.21" transform="translate(1017.27 101.97) rotate(180)" style="fill:#f15b2b;"/><rect x="510.44" y="37.58" width="37.6" height="16.35" transform="translate(1058.47 91.5) rotate(180)" style="fill:#f15b2b;"/><path d="m509.29,37.58h39.23c1.17,0,2.13-.95,2.13-2.13h0c0-1.17-.95-2.13-2.13-2.13h-39.23c-1.17,0-2.13.95-2.13,2.13h0c0,1.17.95,2.13,2.13,2.13Z" style="fill:#58595b;"/><rect x="519.32" y="41.3" width="6.09" height="5.15" style="fill:#d75127;"/><rect x="512.5" y="41.3" width="6.09" height="5.15" style="fill:#d75127;"/><rect x="539.79" y="41.3" width="6.09" height="5.15" style="fill:#d75127;"/><rect x="526.14" y="41.3" width="6.09" height="5.15" style="fill:#d75127;"/><rect x="532.96" y="41.3" width="6.09" height="5.15" style="fill:#d75127;"/><rect x="539.94" y="30.74" width="3.8" height="3.31" transform="translate(1083.68 64.79) rotate(180)" style="fill:#58595b;"/><path d="m69.34,52.14h162.56c0,2.56-2.07,4.63-4.63,4.63H69.34v-4.63h0Z" transform="translate(301.24 108.9) rotate(-180)" style="fill:#f15b2b;"/><rect x="125.07" y="47.88" width="10.46" height="6.21" style="fill:#f15b2b;"/><rect x="90.9" y="37.58" width="37.6" height="16.35" style="fill:#f15b2b;"/><path d="m129.65,37.58h-39.23c-1.17,0-2.13-.95-2.13-2.13h0c0-1.17.95-2.13,2.13-2.13h39.23c1.17,0,2.13.95,2.13,2.13h0c0,1.17-.95,2.13-2.13,2.13Z" style="fill:#58595b;"/><rect x="113.53" y="41.3" width="6.09" height="5.15" style="fill:#d75127;"/><rect x="120.35" y="41.3" width="6.09" height="5.15" style="fill:#d75127;"/><rect x="93.06" y="41.3" width="6.09" height="5.15" style="fill:#d75127;"/><rect x="106.71" y="41.3" width="6.09" height="5.15" style="fill:#d75127;"/><rect x="99.89" y="41.3" width="6.09" height="5.15" style="fill:#d75127;"/><rect x="95.19" y="30.74" width="3.8" height="3.31" style="fill:#58595b;"/><path d="m41.77,153.91s3.68-9.56-.98-10.79c-4.66-1.23-.74,10.79-.74,10.79h1.72Z" style="fill:#404041;"/><path d="m39.81,156.6s-3.68,9.56.98,10.79c4.66,1.23.74-10.79.74-10.79h-1.72Z" style="fill:#404041;"/><rect x="40.05" y="153.91" width="8.83" height="2.7" transform="translate(88.93 310.51) rotate(180)" style="fill:#404041;"/><path d="m607.78,139.44h16.67v19.25c0,1.96-1.59,3.56-3.56,3.56h-9.56c-1.96,0-3.56-1.59-3.56-3.56v-19.25h0Z" style="fill:#404041;"/><path d="m17.21,140.91h9.56c1.96,0,3.56,1.59,3.56,3.56v19.25H13.65v-19.25c0-1.96,1.59-3.56,3.56-3.56Z" transform="translate(43.98 304.62) rotate(180)" style="fill:#404041;"/><path d="m633.04,128.16l-4.01,7.69c-1.14,2.18-3.39,3.54-5.85,3.52-8.8-.06-29.45.26-33.29,4.48-3.83,4.21-2.58,8.42,2.59,10.53,1.57.64,1.66,2.84.17,3.66-1.83,1.01-3.7,2.24-4.72,3.46-2.45,2.94-9.32,4.9-22.56,4.9H72.07c-5.18,0-10.25-1.41-14.69-4.07l-7.62-4.57c-1.37-.82-1.73-2.61-.84-3.93,1.18-1.75,2.33-4.32,1.51-7.04-1.47-4.9-11.77-11.28-21.09,1.47h-6.87s2.94-1.96,2.45-7.36h-14.71s4.9-7.36-4.9-12.75c0,0,628.21.49,627.72,0Z" style="fill:#58595b;"/><ellipse cx="38.21" cy="155.13" rx="2.08" ry="2.45" style="fill:#404041;"/><path d="m575.17,59.01H64.16c0-1.94,1.57-3.51,3.51-3.51h503.98c1.94,0,3.51,1.57,3.51,3.51h0Z" style="fill:#58595b;"/><rect x="269.02" y="94.56" width="24.03" height="8.34" style="fill:none;"/><rect x="340.37" y="94.56" width="24.03" height="8.34" style="fill:none;"/><rect x="302.61" y="94.32" width="8.57" height="8.83" transform="translate(208.17 405.63) rotate(-90)" style="fill:none;"/><rect x="319.04" y="94.32" width="8.57" height="8.83" transform="translate(224.6 422.06) rotate(-90)" style="fill:none;"/><rect x="84.76" y="61.43" width="8.17" height="6.7" style="fill:#d75127;"/><rect x="95.71" y="61.43" width="8.17" height="6.7" style="fill:#d75127;"/><rect x="106.5" y="61.43" width="8.17" height="6.7" style="fill:#d75127;"/><rect x="117.46" y="61.43" width="8.17" height="6.7" style="fill:#d75127;"/><rect x="128.08" y="61.43" width="8.17" height="6.7" style="fill:#d75127;"/><rect x="139.03" y="61.43" width="8.17" height="6.7" style="fill:#d75127;"/><rect x="149.82" y="61.43" width="8.17" height="6.7" style="fill:#d75127;"/><rect x="160.77" y="61.43" width="8.17" height="6.7" style="fill:#d75127;"/><rect x="171.73" y="61.43" width="8.17" height="6.7" style="fill:#d75127;"/><rect x="182.68" y="61.43" width="8.17" height="6.7" style="fill:#d75127;"/><rect x="193.47" y="61.43" width="8.17" height="6.7" style="fill:#d75127;"/><rect x="204.42" y="61.43" width="8.17" height="6.7" style="fill:#d75127;"/><rect x="215.05" y="61.43" width="8.17" height="6.7" style="fill:#d75127;"/><rect x="226" y="61.43" width="8.17" height="6.7" style="fill:#d75127;"/><rect x="236.79" y="61.43" width="8.17" height="6.7" style="fill:#d75127;"/><rect x="247.74" y="61.43" width="8.17" height="6.7" style="fill:#d75127;"/><rect x="398.54" y="61.43" width="8.17" height="6.7" style="fill:#d75127;"/><rect x="409.49" y="61.43" width="8.17" height="6.7" style="fill:#d75127;"/><rect x="420.28" y="61.43" width="8.17" height="6.7" style="fill:#d75127;"/><rect x="431.23" y="61.43" width="8.17" height="6.7" style="fill:#d75127;"/><rect x="441.86" y="61.43" width="8.17" height="6.7" style="fill:#d75127;"/><rect x="452.81" y="61.43" width="8.17" height="6.7" style="fill:#d75127;"/><rect x="463.6" y="61.43" width="8.17" height="6.7" style="fill:#d75127;"/><rect x="474.55" y="61.43" width="8.17" height="6.7" style="fill:#d75127;"/><rect x="508.31" y="61.43" width="8.17" height="6.7" style="fill:#d75127;"/><rect x="519.26" y="61.43" width="8.17" height="6.7" style="fill:#d75127;"/><rect x="530.05" y="61.43" width="8.17" height="6.7" style="fill:#d75127;"/><rect x="541" y="61.43" width="8.17" height="6.7" style="fill:#d75127;"/><rect x="277.16" y="61.43" width="8.17" height="6.7" style="fill:#d75127;"/><rect x="288.12" y="61.43" width="8.17" height="6.7" style="fill:#d75127;"/><rect x="298.91" y="61.43" width="8.17" height="6.7" style="fill:#d75127;"/><rect x="309.86" y="61.43" width="8.17" height="6.7" style="fill:#d75127;"/><rect x="336.18" y="61.43" width="8.17" height="6.7" style="fill:#d75127;"/><rect x="347.13" y="61.43" width="8.17" height="6.7" style="fill:#d75127;"/><rect x="357.92" y="61.43" width="8.17" height="6.7" style="fill:#d75127;"/><rect x="368.87" y="61.43" width="8.17" height="6.7" style="fill:#d75127;"/><rect x="75.05" y="79.01" width="8.07" height="6.7" style="fill:#d75127;"/><rect x="85.87" y="79.01" width="8.07" height="6.7" style="fill:#d75127;"/><rect x="96.52" y="79.01" width="8.07" height="6.7" style="fill:#d75127;"/><rect x="107.34" y="79.01" width="8.07" height="6.7" style="fill:#d75127;"/><rect x="117.84" y="79.01" width="8.07" height="6.7" style="fill:#d75127;"/><rect x="128.66" y="79.01" width="8.07" height="6.7" style="fill:#d75127;"/><rect x="139.32" y="79.01" width="8.07" height="6.7" style="fill:#d75127;"/><rect x="150.14" y="79.01" width="8.07" height="6.7" style="fill:#d75127;"/><rect x="161.12" y="79.01" width="8.07" height="6.7" style="fill:#d75127;"/><rect x="171.94" y="79.01" width="8.07" height="6.7" style="fill:#d75127;"/><rect x="182.59" y="79.01" width="8.07" height="6.7" style="fill:#d75127;"/><rect x="193.41" y="79.01" width="8.07" height="6.7" style="fill:#d75127;"/><rect x="203.91" y="79.01" width="8.07" height="6.7" style="fill:#d75127;"/><rect x="214.73" y="79.01" width="8.07" height="6.7" style="fill:#d75127;"/><rect x="225.39" y="79.01" width="8.07" height="6.7" style="fill:#d75127;"/><rect x="236.21" y="79.01" width="8.07" height="6.7" style="fill:#d75127;"/><rect x="247.19" y="79.01" width="8.07" height="6.7" style="fill:#d75127;"/><rect x="258.01" y="79.01" width="8.07" height="6.7" style="fill:#d75127;"/><rect x="268.67" y="79.01" width="8.07" height="6.7" style="fill:#d75127;"/><rect x="279.49" y="79.01" width="8.07" height="6.7" style="fill:#d75127;"/><rect x="289.98" y="79.01" width="8.07" height="6.7" style="fill:#d75127;"/><rect x="300.8" y="79.01" width="8.07" height="6.7" style="fill:#d75127;"/><rect x="311.46" y="79.01" width="8.07" height="6.7" style="fill:#d75127;"/><rect x="322.28" y="79.01" width="8.07" height="6.7" style="fill:#d75127;"/><rect x="333.26" y="79.01" width="8.07" height="6.7" style="fill:#d75127;"/><rect x="344.08" y="79.01" width="8.07" height="6.7" style="fill:#d75127;"/><rect x="354.74" y="79.01" width="8.07" height="6.7" style="fill:#d75127;"/><rect x="365.56" y="79.01" width="8.07" height="6.7" style="fill:#d75127;"/><rect x="376.05" y="79.01" width="8.07" height="6.7" style="fill:#d75127;"/><rect x="386.87" y="79.01" width="8.07" height="6.7" style="fill:#d75127;"/><rect x="397.53" y="79.01" width="8.07" height="6.7" style="fill:#d75127;"/><rect x="408.35" y="79.01" width="8.07" height="6.7" style="fill:#d75127;"/><rect x="419.82" y="79.01" width="8.07" height="6.7" style="fill:#d75127;"/><rect x="430.64" y="79.01" width="8.07" height="6.7" style="fill:#d75127;"/><rect x="441.29" y="79.01" width="8.07" height="6.7" style="fill:#d75127;"/><rect x="452.11" y="79.01" width="8.07" height="6.7" style="fill:#d75127;"/><rect x="462.61" y="79.01" width="8.07" height="6.7" style="fill:#d75127;"/><rect x="473.43" y="79.01" width="8.07" height="6.7" style="fill:#d75127;"/><rect x="484.09" y="79.01" width="8.07" height="6.7" style="fill:#d75127;"/><rect x="494.91" y="79.01" width="8.07" height="6.7" style="fill:#d75127;"/><rect x="506.21" y="79.01" width="8.07" height="6.7" style="fill:#d75127;"/><rect x="517.23" y="79.01" width="8.07" height="6.7" style="fill:#d75127;"/><rect x="528.01" y="79.01" width="8.07" height="6.7" style="fill:#d75127;"/><rect x="539.52" y="79.01" width="8.07" height="6.7" style="fill:#d75127;"/><rect x="550.3" y="79.01" width="8.07" height="6.7" style="fill:#d75127;"/><rect x="99.21" y="109.44" width="8.17" height="6.7" style="fill:#d75127;"/><rect x="110" y="109.44" width="8.17" height="6.7" style="fill:#d75127;"/><rect x="120.95" y="109.44" width="8.17" height="6.7" style="fill:#d75127;"/><rect x="132.07" y="109.44" width="8.17" height="6.7" style="fill:#d75127;"/><rect x="143.02" y="109.44" width="8.17" height="6.7" style="fill:#d75127;"/><rect x="153.81" y="109.44" width="8.17" height="6.7" style="fill:#d75127;"/><rect x="164.76" y="109.44" width="8.17" height="6.7" style="fill:#d75127;"/><rect x="175.39" y="109.44" width="8.17" height="6.7" style="fill:#d75127;"/><rect x="186.34" y="109.44" width="8.17" height="6.7" style="fill:#d75127;"/><rect x="197.13" y="109.44" width="8.17" height="6.7" style="fill:#d75127;"/><rect x="208.08" y="109.44" width="8.17" height="6.7" style="fill:#d75127;"/><rect x="219.2" y="109.44" width="8.17" height="6.7" style="fill:#d75127;"/><rect x="230.15" y="109.44" width="8.17" height="6.7" style="fill:#d75127;"/><rect x="240.94" y="109.44" width="8.17" height="6.7" style="fill:#d75127;"/><rect x="251.89" y="109.44" width="8.17" height="6.7" style="fill:#d75127;"/><rect x="262.52" y="109.44" width="8.17" height="6.7" style="fill:#d75127;"/><rect x="273.47" y="109.44" width="8.17" height="6.7" style="fill:#d75127;"/><rect x="284.26" y="109.44" width="8.17" height="6.7" style="fill:#d75127;"/><rect x="295.21" y="109.44" width="8.17" height="6.7" style="fill:#d75127;"/><rect x="328.07" y="109.44" width="8.17" height="6.7" style="fill:#d75127;"/><rect x="339.02" y="109.44" width="8.17" height="6.7" style="fill:#d75127;"/><rect x="349.65" y="109.44" width="8.17" height="6.7" style="fill:#d75127;"/><rect x="360.6" y="109.44" width="8.17" height="6.7" style="fill:#d75127;"/><rect x="371.39" y="109.44" width="8.17" height="6.7" style="fill:#d75127;"/><rect x="382.34" y="109.44" width="8.17" height="6.7" style="fill:#d75127;"/><rect x="393.95" y="109.44" width="8.17" height="6.7" style="fill:#d75127;"/><rect x="404.9" y="109.44" width="8.17" height="6.7" style="fill:#d75127;"/><rect x="415.69" y="109.44" width="8.17" height="6.7" style="fill:#d75127;"/><rect x="426.64" y="109.44" width="8.17" height="6.7" style="fill:#d75127;"/><rect x="437.27" y="109.44" width="8.17" height="6.7" style="fill:#d75127;"/><rect x="448.22" y="109.44" width="8.17" height="6.7" style="fill:#d75127;"/><rect x="459.01" y="109.44" width="8.17" height="6.7" style="fill:#d75127;"/><rect x="469.96" y="109.44" width="8.17" height="6.7" style="fill:#d75127;"/><rect x="481.4" y="109.44" width="8.17" height="6.7" style="fill:#d75127;"/><rect x="492.56" y="109.44" width="8.17" height="6.7" style="fill:#d75127;"/><rect x="503.47" y="109.44" width="8.17" height="6.7" style="fill:#d75127;"/><rect x="515.12" y="109.44" width="8.17" height="6.7" style="fill:#d75127;"/><rect x="526.03" y="109.44" width="8.17" height="6.7" style="fill:#d75127;"/><text transform="translate(210.17 102.89)" style="fill:#58595b; font-family:Coquette-Bold, Coquette; font-size:18.19px; font-weight:700;"><tspan x="0" y="0" style="letter-spacing:.2em;">Staten Island </tspan><tspan x="156.82" y="0" style="letter-spacing:.16em;">F</tspan><tspan x="172.59" y="0" style="letter-spacing:.2em;">erry</tspan></text></svg>